<svg xmlns="http://www.w3.org/2000/svg" viewBox="0 0 1441.05 1080"><defs><style>.cls-1{fill:#fff;}</style></defs><g id="Слой_1" data-name="Слой 1"><path class="cls-1" d="M501.63,1079.5V731.79H304.1V1079.5H263.89c-18.56,0-33.66-13.76-33.66-30.67v-499h.27L691.93,156.47l461.11,393v499.32c0,16.91-15.1,30.67-33.66,30.67Z"/><path class="cls-1" d="M691.93,157.13l460.61,392.61v499.09c0,16.63-14.87,30.17-33.16,30.17H502.13V731.29H303.6V1079H263.89c-18.28,0-33.16-13.54-33.16-30.17V550.24l.23-.2,461-392.91m0-1.32L230.32,549.28h-.59v499.55c0,17.21,15.3,31.17,34.16,31.17H304.6V732.29H501.13V1080h618.25c18.87,0,34.16-14,34.16-31.17V549.28L691.93,155.81Z"/><path class="cls-1" d="M1260.8,591.48a2.47,2.47,0,0,1-1.62-.58L1057.46,419.06a3.48,3.48,0,0,0-2.27-.82h-.4a2.23,2.23,0,0,1-2.35-2.1,3,3,0,0,0-1.08-2.28l-358-305a3.54,3.54,0,0,0-4.53,0l-565.79,482a2.46,2.46,0,0,1-1.62.58H2.85A2.32,2.32,0,0,1,.62,590a1.91,1.91,0,0,1,.61-2.17L690,1.08a2.55,2.55,0,0,1,3.24,0l353.56,301.2a3.42,3.42,0,0,0,2.25.83,3.26,3.26,0,0,0,3.37-3.11V250.14c0-11.7,10.46-21.23,23.31-21.23h66c12.86,0,23.32,9.53,23.32,21.23V401.67a3,3,0,0,0,1.08,2.28L1382,587.86a1.91,1.91,0,0,1,.61,2.17,2.31,2.31,0,0,1-2.23,1.45Z"/><path class="cls-1" d="M691.64,1a1.94,1.94,0,0,1,1.29.46L1046.5,302.67a3.93,3.93,0,0,0,2.57.94,3.75,3.75,0,0,0,3.87-3.61V250.14c0-11.43,10.23-20.73,22.81-20.73h66c12.58,0,22.82,9.3,22.82,20.73V401.67a3.49,3.49,0,0,0,1.25,2.66l215.89,183.91a1.42,1.42,0,0,1,.47,1.62,1.79,1.79,0,0,1-1.77,1.12H1260.8a1.94,1.94,0,0,1-1.29-.46L1057.79,418.68a4,4,0,0,0-2.6-.94h-.4a1.74,1.74,0,0,1-1.85-1.6,3.5,3.5,0,0,0-1.26-2.66l-358-305a4.05,4.05,0,0,0-5.19,0l-565.78,482a2,2,0,0,1-1.3.46H2.85a1.81,1.81,0,0,1-1.76-1.12,1.42,1.42,0,0,1,.47-1.62L690.34,1.46a2,2,0,0,1,1.3-.46m0-1a3,3,0,0,0-1.95.7L.91,587.48C-1,589.09.27,592,2.85,592h118.6a3,3,0,0,0,2-.7l565.78-482a3.05,3.05,0,0,1,3.89,0l358,305a2.49,2.49,0,0,1,.91,1.9,2.73,2.73,0,0,0,2.85,2.6h.4a3,3,0,0,1,2,.7l201.72,171.84a3,3,0,0,0,1.94.7h119.62c2.59,0,3.84-2.89,1.95-4.5L1166.48,403.57a2.48,2.48,0,0,1-.9-1.9V250.14c0-12-10.66-21.73-23.82-21.73h-66c-13.15,0-23.81,9.73-23.81,21.73V300a2.74,2.74,0,0,1-2.87,2.61,2.92,2.92,0,0,1-1.92-.71L693.58.7a3,3,0,0,0-1.94-.7Z"/></g></svg>