<svg xmlns="http://www.w3.org/2000/svg" viewBox="0 0 1441.05 1080"><defs><style>.cls-1{fill:#fff;}</style></defs><g id="Слой_1" data-name="Слой 1"><path class="cls-1" d="M504.13,1077V729.29H301.6V1077H263.89c-17.18,0-31.16-12.64-31.16-28.17V551.16l459.2-391.4,458.61,390.91v498.16c0,15.53-14,28.17-31.16,28.17Z"/><path d="M691.93,163.7l455.61,388.35v496.78c0,13.88-12.63,25.17-28.16,25.17H507.13V726.29H298.6V1074H263.89c-15.53,0-28.16-11.29-28.16-25.17V552.55L691.93,163.7m0-7.89L230.32,549.28h-.59v499.55c0,17.21,15.3,31.17,34.16,31.17H304.6V732.29H501.13V1080h618.25c18.87,0,34.16-14,34.16-31.17V549.28L691.93,155.81Z"/><path class="cls-1" d="M3.77,589,691.64,3,1045.2,304.19a6,6,0,0,0,3.87,1.42,5.75,5.75,0,0,0,5.87-5.61V250.14c0-10.33,9.34-18.73,20.81-18.73h66c11.48,0,20.82,8.4,20.82,18.73V401.67a5.48,5.48,0,0,0,2,4.18L1379.5,589H1260.8L1059.08,417.15a6,6,0,0,0-3.89-1.41h-.27A5.51,5.51,0,0,0,1053,412L695,107a6,6,0,0,0-7.78,0L121.45,589Z"/><path d="M691.64,6.93l351.61,299.54a9,9,0,0,0,5.82,2.14,8.75,8.75,0,0,0,8.87-8.61V250.14c0-8.67,8-15.73,17.81-15.73h66c9.83,0,17.82,7.06,17.82,15.73V401.67a8.53,8.53,0,0,0,3,6.47L1371.35,586H1261.89L1061,414.87a9,9,0,0,0-3.7-1.88,8.64,8.64,0,0,0-2.41-3.32l-358-305a9,9,0,0,0-11.67,0L120.36,586H11.92L691.64,6.93m0-6.93a3,3,0,0,0-1.95.7L.91,587.48C-1,589.09.27,592,2.85,592h118.6a3,3,0,0,0,2-.7l565.78-482a3.05,3.05,0,0,1,3.89,0l358,305a2.49,2.49,0,0,1,.91,1.9,2.73,2.73,0,0,0,2.85,2.6h.4a3,3,0,0,1,2,.7l201.72,171.84a3,3,0,0,0,1.94.7h119.62c2.59,0,3.84-2.89,1.95-4.5L1166.48,403.57a2.48,2.48,0,0,1-.9-1.9V250.14c0-12-10.66-21.73-23.82-21.73h-66c-13.15,0-23.81,9.73-23.81,21.73V300a2.74,2.74,0,0,1-2.87,2.61,2.92,2.92,0,0,1-1.92-.71L693.58.7a3,3,0,0,0-1.94-.7Z"/></g></svg>